<svg width="384" height="144" viewBox="0 0 384 144" fill="none" xmlns="http://www.w3.org/2000/svg">
<path d="M171.337 40.6001H151.921V1.33008H139.72V51.0701H171.337V40.6001Z" fill="#1D1D1B"/>
<path d="M190.228 45.13C192.66 47.45 195.547 49.24 198.877 50.5C202.207 51.76 205.83 52.4 209.756 52.4C213.681 52.4 217.314 51.77 220.675 50.5C224.025 49.24 226.922 47.44 229.364 45.13C231.796 42.81 233.703 40.03 235.066 36.77C236.438 33.52 237.125 29.92 237.125 25.99C237.125 22.01 236.438 18.42 235.066 15.21C233.693 12 231.796 9.27 229.364 7.03C226.932 4.78 224.036 3.05 220.675 1.83C217.314 0.610002 213.681 0 209.756 0C205.83 0 202.207 0.610002 198.877 1.83C195.547 3.05 192.66 4.78 190.228 7.03C187.796 9.28 185.889 12.01 184.526 15.21C183.154 18.42 182.468 22.01 182.468 25.99C182.468 29.92 183.154 33.52 184.526 36.77C185.889 40.03 187.796 42.81 190.228 45.13ZM196.465 19.95C197.151 18.08 198.13 16.47 199.412 15.14C200.683 13.81 202.197 12.75 203.953 11.98C205.699 11.21 207.637 10.82 209.766 10.82C211.895 10.82 213.843 11.21 215.619 11.98C217.395 12.75 218.899 13.81 220.16 15.14C221.412 16.47 222.391 18.08 223.107 19.95C223.814 21.82 224.167 23.84 224.167 25.99C224.167 28.24 223.814 30.31 223.107 32.21C222.401 34.11 221.402 35.73 220.13 37.09C218.859 38.45 217.345 39.51 215.589 40.29C213.843 41.06 211.905 41.45 209.776 41.45C207.647 41.45 205.709 41.06 203.963 40.29C202.217 39.52 200.714 38.45 199.462 37.09C198.211 35.73 197.232 34.1 196.526 32.21C195.819 30.31 195.466 28.24 195.466 25.99C195.436 23.84 195.779 21.82 196.465 19.95Z" fill="#1D1D1B"/>
<path d="M284.869 50.9301C287.543 49.9501 289.824 48.5801 291.711 46.8201C293.598 45.0601 295.051 42.9601 296.071 40.5001C297.09 38.0401 297.595 35.3101 297.595 32.3201V1.33008H285.474V31.3201C285.474 32.6801 285.303 33.9701 284.98 35.1801C284.647 36.4001 284.102 37.4901 283.355 38.4501C282.598 39.4101 281.619 40.1701 280.408 40.7301C279.207 41.2901 277.754 41.5701 276.049 41.5701C274.343 41.5701 272.89 41.2901 271.689 40.7301C270.488 40.1701 269.509 39.4101 268.783 38.4501C268.046 37.4901 267.511 36.4001 267.148 35.1801C266.795 33.9601 266.613 32.6801 266.613 31.3201V1.33008H254.563V32.3101C254.563 35.3101 255.058 38.0301 256.057 40.4901C257.046 42.9501 258.469 45.0601 260.306 46.8101C262.152 48.5701 264.393 49.9401 267.037 50.9201C269.681 51.9001 272.658 52.4001 275.968 52.4001C279.228 52.4001 282.195 51.9101 284.869 50.9301Z" fill="#1D1D1B"/>
<path d="M329.485 1.33008H317.294V51.0601H329.485V1.33008Z" fill="#1D1D1B"/>
<path d="M369.287 41.2308C368.651 41.6508 367.904 41.9608 367.056 42.1408C366.209 42.3308 365.331 42.4208 364.432 42.4208C362.444 42.4208 360.446 41.9208 358.438 40.9108C356.43 39.9008 354.815 38.6508 353.584 37.1508L345.642 45.1608C347.862 47.4508 350.647 49.2208 354.008 50.4608C357.358 51.7008 360.84 52.3208 364.432 52.3208C366.885 52.3208 369.276 51.9908 371.587 51.3408C373.898 50.6808 375.957 49.6808 377.753 48.3208C379.55 46.9608 380.983 45.2408 382.042 43.1608C383.102 41.0808 383.637 38.6108 383.637 35.7508C383.637 33.2708 383.142 31.2008 382.153 29.5308C381.164 27.8708 379.913 26.4708 378.399 25.3508C376.886 24.2308 375.21 23.3208 373.364 22.6508C371.517 21.9708 369.751 21.3508 368.045 20.7908C366.864 20.4208 365.805 20.0508 364.856 19.7008C363.908 19.3508 363.1 18.9608 362.414 18.5408C361.728 18.1208 361.213 17.6308 360.85 17.0608C360.497 16.5008 360.315 15.8008 360.315 14.9508C360.315 13.9708 360.537 13.1608 360.991 12.5308C361.435 11.9008 361.99 11.3808 362.656 10.9808C363.322 10.5808 364.059 10.3108 364.886 10.1708C365.714 10.0308 366.531 9.96078 367.329 9.96078C368.893 9.96078 370.508 10.3508 372.183 11.1208C373.858 11.8908 375.22 12.9408 376.26 14.2508L383.99 6.17078C381.77 4.16078 379.176 2.63078 376.23 1.60078C373.273 0.570777 370.386 0.0507812 367.551 0.0507812C365.189 0.0507812 362.848 0.340779 360.537 0.930779C358.216 1.52078 356.137 2.44078 354.3 3.70078C352.454 4.96078 350.97 6.58078 349.83 8.55078C348.699 10.5208 348.124 12.8808 348.124 15.6408C348.124 17.8908 348.487 19.8008 349.224 21.3608C349.961 22.9308 350.93 24.2608 352.131 25.3608C353.331 26.4608 354.704 27.3608 356.238 28.0608C357.772 28.7608 359.346 29.3708 360.951 29.8908C362.606 30.4108 364.079 30.8908 365.381 31.3308C366.683 31.7808 367.763 32.2708 368.641 32.8108C369.519 33.3508 370.185 33.9508 370.659 34.6008C371.133 35.2608 371.365 36.0508 371.365 36.9908C371.365 37.9708 371.174 38.8208 370.8 39.5208C370.437 40.2508 369.932 40.8108 369.287 41.2308Z" fill="#1D1D1B"/>
<path d="M23.6449 41.2308C23.0091 41.6508 22.2623 41.9608 21.4146 42.1408C20.5669 42.3308 19.689 42.4208 18.7908 42.4208C16.8027 42.4208 14.8046 41.9208 12.7963 40.9108C10.7881 39.9008 9.17338 38.6508 7.94219 37.1508L0 45.1608C2.22018 47.4508 5.0055 49.2208 8.36604 50.4608C11.7165 51.7008 15.1981 52.3208 18.7908 52.3208C21.2431 52.3208 23.6348 51.9908 25.9458 51.3408C28.2568 50.6808 30.3155 49.6808 32.1119 48.3208C33.9082 46.9608 35.3412 45.2408 36.4008 43.1608C37.4605 41.0808 37.9953 38.6108 37.9953 35.7508C37.9953 33.2708 37.5008 31.2008 36.5018 29.5308C35.5128 27.8708 34.2614 26.4708 32.7476 25.3508C31.2339 24.2308 29.5587 23.3208 27.7119 22.6508C25.8651 21.9708 24.099 21.3508 22.3935 20.7908C21.2128 20.4208 20.1532 20.0508 19.2045 19.7008C18.2559 19.3508 17.4385 18.9608 16.7624 18.5408C16.0761 18.1208 15.5614 17.6308 15.1981 17.0608C14.8449 16.5008 14.6633 15.8008 14.6633 14.9508C14.6633 13.9708 14.8853 13.1608 15.3394 12.5308C15.7835 11.9008 16.3385 11.3808 17.0046 10.9808C17.6706 10.5808 18.4073 10.3108 19.2348 10.1708C20.0623 10.0308 20.8798 9.96078 21.677 9.96078C23.2412 9.96078 24.8559 10.3508 26.5311 11.1208C28.2064 11.8908 29.5688 12.9408 30.6082 14.2508L38.3385 6.17078C36.1183 4.16078 33.5247 2.63078 30.5779 1.60078C27.621 0.570777 24.7247 0.0507812 21.899 0.0507812C19.5376 0.0507812 17.1963 0.340779 14.8853 0.930779C12.5642 1.52078 10.4853 2.44078 8.64861 3.70078C6.80182 4.96078 5.31834 6.58078 4.17797 8.55078C3.0477 10.5408 2.48256 12.9008 2.48256 15.6608C2.48256 17.9108 2.84586 19.8208 3.58256 21.3808C4.31925 22.9508 5.28806 24.2808 6.48898 25.3808C7.68989 26.4808 9.06237 27.3808 10.5963 28.0808C12.1303 28.7808 13.7046 29.3908 15.3091 29.9108C16.9642 30.4308 18.4376 30.9108 19.7394 31.3508C21.0412 31.8008 22.1211 32.2908 22.999 32.8308C23.877 33.3708 24.5431 33.9708 25.0174 34.6208C25.4917 35.2808 25.7238 36.0708 25.7238 37.0108C25.7238 37.9908 25.5321 38.8408 25.1587 39.5408C24.7853 40.2508 24.2807 40.8108 23.6449 41.2308Z" fill="#1D1D1B"/>
<path d="M64.3644 51.0701H76.4947V11.5901H90.6635V1.33008H50.1855V11.5901H64.3644V51.0701Z" fill="#1D1D1B"/>
<path d="M100.948 49.8002C101.614 50.4102 102.381 50.8902 103.249 51.2402C104.127 51.5902 105.055 51.7702 106.044 51.7702C107.982 51.7702 109.647 51.1102 111.039 49.8002C112.432 48.4902 113.128 46.8502 113.128 44.8802C113.128 42.9102 112.432 41.2702 111.039 39.9602C109.647 38.6502 107.982 37.9902 106.044 37.9902C105.055 37.9902 104.117 38.1802 103.249 38.5502C102.371 38.9302 101.604 39.4302 100.948 40.0602C100.282 40.6902 99.767 41.4302 99.3835 42.2702C99 43.1102 98.8184 44.0002 98.8184 44.9402C98.8184 45.9202 99.0101 46.8302 99.3835 47.6402C99.767 48.4802 100.282 49.1902 100.948 49.8002Z" fill="#1D1D1B"/>
<path d="M116.479 94.4707H0V97.4707H116.479V94.4707Z" fill="#1D1D1B"/>
<path d="M384 94.4707H267.521V97.4707H384V94.4707Z" fill="#1D1D1B"/>
<path d="M172.88 127.87C172.124 128.13 171.488 128.58 170.882 129.02C170.337 129.42 169.792 129.82 169.237 130.22C166.977 131.88 164.636 133.6 162.092 134.89C158.944 136.48 154.776 138.46 150.366 139.64C144.119 141.31 138.811 141.48 134.592 140.16C130.546 138.82 128.013 135.7 126.852 130.61C125.449 124.15 126.59 117.24 130.576 108.21C136.964 93.7499 145.047 83.1799 156.794 73.9399C166.048 66.6499 175.898 62.1299 182.498 62.1299C184.557 62.1299 185.091 62.2599 186.262 63.0699C187.513 63.9699 187.513 63.9699 187.513 66.5799C187.513 72.0399 181.832 82.2799 175.111 88.9399C173.91 90.1299 173.456 91.0199 173.718 91.6499C173.9 92.0899 174.384 92.3199 175.141 92.3199C176.685 92.3199 180.025 88.5499 182.558 85.3899C188.714 77.7399 192.62 68.1499 191.278 64.0299C189.935 59.7599 184.536 57.7099 178.148 59.0199C163.243 62.2599 145.915 75.4399 135.026 91.8199C130.455 98.6799 126.075 107.76 123.875 114.96C122.886 118.18 122.281 121.67 122.159 124.77C122.038 127.9 122.402 130.59 123.239 132.76C125.248 137.93 128.537 141.19 133.301 142.72C135.763 143.53 138.165 143.85 140.536 143.85C143.907 143.85 147.227 143.21 150.568 142.48C155.381 141.42 160.397 139.51 165.897 136.64C167.602 135.75 169.288 134.72 170.923 133.59L171.78 132.99C172.426 132.54 175.666 129.29 175.03 128.05C174.616 127.28 173.355 127.7 172.88 127.87Z" fill="#1D1D1B"/>
<path d="M229.89 94.5005C229.769 95.1905 230.092 95.4905 230.293 95.6105C230.455 95.7105 230.657 95.7505 230.889 95.7505C232.251 95.7505 234.572 94.1505 235.955 93.1005C239.265 90.7605 239.467 89.8605 239.265 89.3505C239.013 88.6905 238.054 88.7105 237.358 88.7905C236.086 88.9105 230.102 93.2805 229.89 94.5005Z" fill="#1D1D1B"/>
<path d="M258.046 101.11C257.218 100.72 255.493 101.59 252.94 103.69C252.586 103.98 252.324 104.21 252.203 104.32C249.73 106.58 246.662 108.21 243.706 109.79L242.535 110.42C240.032 111.77 237.055 113.14 233.917 113.14C230.919 113.14 229.406 112.26 229.285 110.41C229.163 109.69 229.305 108.76 229.507 108.35C229.648 108.06 229.658 108.06 230.485 108.08C230.929 108.09 231.525 108.1 232.403 108.06C233.896 107.94 235.612 107.69 237.156 106.3C238.73 104.97 239.507 103.54 239.336 102.27C239.215 101.35 238.609 100.6 237.59 100.13C237.015 99.8502 236.44 99.7002 235.854 99.7002C233.886 99.7002 231.666 100.75 229.779 102.32C226.025 104.02 219.374 106.26 216.932 106.74C215.822 106.92 213.067 107.37 211.533 107.5C210.756 107.58 209.898 107.66 209.505 107.66C210.474 105.52 220.03 90.4502 223.401 85.7502L223.926 85.0202C230.233 76.2102 230.233 76.2102 229.91 75.4102C229.729 74.8802 229.083 74.4902 228.366 74.4902C227.448 74.4902 226.449 75.3302 222.614 80.5402C219.98 84.2402 217.366 87.9402 214.884 91.7502C212.3 95.7202 210.181 99.8102 206.8 103.16C204.59 105.35 202.198 107.28 199.585 109C197.465 110.39 194.983 111.89 192.308 112.12C190.785 112.24 190.593 112.1 190.23 111.66C189.563 110.67 190.088 108.44 191.663 105.56C192.783 103.58 193.136 102.76 192.369 102C191.34 100.99 190.532 101.33 189.109 102.48L188.211 103.19L187.787 102.36C186.97 100.73 185.416 99.8302 183.418 99.8302C181.914 99.8302 180.148 100.38 178.311 101.42C173.588 104.09 169.562 109.34 169.531 112.87C169.521 114.03 169.965 114.92 170.813 115.42C171.439 115.8 172.175 115.99 173.023 115.99C175.607 115.99 179.209 114.25 183.791 110.8L186.233 108.98V110.35C186.233 112.32 186.374 112.86 187.939 114.12C190.714 116.32 194.064 115.9 199.897 112.62C200.695 112.16 201.593 111.58 202.531 110.94L203.399 111.41L202.43 113.22C201.795 114.35 200.735 117.02 199.696 119.67C196.153 129.16 195.76 134.2 198.424 136.01C199.211 136.56 200.099 136.83 201.058 136.83C201.563 136.83 202.087 136.75 202.622 136.6C205.761 135.7 208.889 132.32 210.786 127.78C211.866 125.37 212.108 124 212.108 120.45C212.108 116.68 211.967 115.85 211.008 114.09C210.373 113.09 209.444 111.76 208.889 111.2C208.647 110.96 208.475 110.76 208.354 110.61C208.829 110.52 209.939 110.37 212.512 110.1C217.134 109.65 221.554 108.62 226.096 106.94C225.712 107.76 225.46 108.58 225.359 109.39C224.945 112.79 227.438 115.31 232.029 116.11C232.736 116.22 233.452 116.28 234.189 116.28C239.518 116.28 245.653 113.3 254.171 106.69C256.209 105.11 258.591 102.97 258.591 102.15C258.601 101.51 258.298 101.23 258.046 101.11ZM235.824 102.56C235.713 102.92 235.067 103.76 234.129 104.22C232.675 104.89 232.635 104.91 232.1 104.68L232.615 104.27C233.866 103.28 235.289 102.59 235.824 102.56ZM206.75 113.92C207.305 114.48 208.496 116.93 208.718 118.71H208.728C209.152 123.16 206.124 130.73 203.086 132.78C201.845 133.6 201.431 133.69 201.31 133.62C201.108 133.52 201.018 132.78 201.018 131.45C201.008 128.46 205.145 115.94 206.75 113.92ZM181.046 108.4C179.199 109.76 177.221 110.83 175.334 112.06C174.93 112.32 174.466 112.58 173.992 112.5C172.085 112.18 176.989 107.17 177.665 106.57C179.169 105.22 181.541 103.07 183.73 103.07C184.053 103.07 184.346 103.34 184.487 103.52C184.881 104.04 185.042 104.75 184.952 105.09C184.608 106.26 182.217 107.54 181.298 108.22C181.208 108.28 181.127 108.34 181.046 108.4Z" fill="#1D1D1B"/>
</svg>
