<svg xmlns="http://www.w3.org/2000/svg" xmlns:xlink="http://www.w3.org/1999/xlink" width="1920" zoomAndPan="magnify" viewBox="0 0 1440 809.999993" height="1080" preserveAspectRatio="xMidYMid meet" version="1.2"><defs/><g id="7abd916054"><g style="fill:#000000;fill-opacity:1;"><g transform="translate(301.441847, 420.080191)"><path style="stroke:none" d="M 57.765625 0 L 98.953125 0 L 98.953125 -95.953125 L 147.796875 -95.953125 L 147.796875 -123.015625 L 8.84375 -123.015625 L 8.84375 -95.953125 L 57.765625 -95.953125 Z M 57.765625 0 "/></g></g><g style="fill:#000000;fill-opacity:1;"><g transform="translate(443.631321, 420.080191)"><path style="stroke:none" d="M 8.84375 0 L 130.296875 0 L 130.296875 -27.0625 L 50.015625 -27.0625 L 50.015625 -49.296875 L 123.5625 -49.296875 L 123.5625 -74.71875 L 50.015625 -74.71875 L 50.015625 -95.953125 L 130.296875 -95.953125 L 130.296875 -123.015625 L 8.84375 -123.015625 Z M 8.84375 0 "/></g></g><g style="fill:#000000;fill-opacity:1;"><g transform="translate(570.061863, 420.080191)"><path style="stroke:none" d="M 16.125 0 L 57.046875 0 L 57.046875 -123.015625 L 16.125 -123.015625 Z M 16.125 0 "/></g></g><g style="fill:#000000;fill-opacity:1;"><g transform="translate(630.450468, 420.080191)"><path style="stroke:none" d="M 79.359375 0.734375 C 102.867188 0.609375 118.300781 -5.253906 125.65625 -16.859375 L 129.9375 0 L 154.171875 0 L 154.171875 -67.25 L 84.734375 -67.25 L 84.734375 -44.46875 L 111.34375 -44.46875 L 111.25 -43.1875 C 110.28125 -37.351562 107.640625 -33.066406 103.328125 -30.328125 C 99.015625 -27.597656 91.9375 -26.234375 82.09375 -26.234375 C 71.582031 -26.234375 63.242188 -28.890625 57.078125 -34.203125 C 50.921875 -39.523438 47.84375 -48.566406 47.84375 -61.328125 C 47.84375 -75.535156 50.921875 -85.082031 57.078125 -89.96875 C 63.242188 -94.863281 71.492188 -97.3125 81.828125 -97.3125 C 91.785156 -97.3125 99.222656 -95.851562 104.140625 -92.9375 C 109.066406 -90.019531 111.984375 -85.222656 112.890625 -78.546875 L 154.171875 -78.546875 C 153.378906 -91.179688 146.847656 -101.945312 134.578125 -110.84375 C 122.304688 -119.738281 104.691406 -124.1875 81.734375 -124.1875 C 56.398438 -124.1875 37.488281 -118.84375 25 -108.15625 C 12.519531 -97.46875 6.28125 -82.039062 6.28125 -61.875 C 6.28125 -41.945312 12.320312 -26.53125 24.40625 -15.625 C 36.5 -4.71875 54.816406 0.734375 79.359375 0.734375 Z M 79.359375 0.734375 "/></g></g><g style="fill:#000000;fill-opacity:1;"><g transform="translate(784.1176, 420.080191)"><path style="stroke:none" d="M 33.890625 0 L 97.5 0 L 119 -96.3125 L 119.265625 -96.3125 L 140.78125 0 L 204.375 0 L 234.984375 -123.015625 L 189.890625 -123.015625 L 171.125 -29.703125 L 170.84375 -29.703125 L 147.96875 -123.015625 L 90.390625 -123.015625 L 67.609375 -29.890625 L 67.25 -29.890625 L 49.484375 -123.015625 L 4.5625 -123.015625 Z M 33.890625 0 "/></g></g><g style="fill:#000000;fill-opacity:1;"><g transform="translate(1010.749684, 420.080191)"><path style="stroke:none" d="M 8.84375 0 L 130.296875 0 L 130.296875 -27.0625 L 50.015625 -27.0625 L 50.015625 -49.296875 L 123.5625 -49.296875 L 123.5625 -74.71875 L 50.015625 -74.71875 L 50.015625 -95.953125 L 130.296875 -95.953125 L 130.296875 -123.015625 L 8.84375 -123.015625 Z M 8.84375 0 "/></g></g><g style="fill:#000000;fill-opacity:1;"><g transform="translate(1137.180227, 420.080191)"><path style="stroke:none" d="M 9.9375 0 L 51.203125 0 L 51.203125 -44.28125 L 101.046875 -44.28125 C 117.203125 -44.28125 129.09375 -47.695312 136.71875 -54.53125 C 144.34375 -61.363281 148.15625 -70.945312 148.15625 -83.28125 C 148.15625 -95.675781 144.539062 -105.394531 137.3125 -112.4375 C 130.082031 -119.488281 118.753906 -123.015625 103.328125 -123.015625 L 9.9375 -123.015625 Z M 105.78125 0 L 151.53125 0 L 108.34375 -58.046875 L 66.96875 -57.40625 Z M 51.203125 -69.25 L 51.203125 -95.953125 L 90.75 -95.953125 C 96.519531 -95.953125 100.648438 -94.84375 103.140625 -92.625 C 105.628906 -90.40625 106.875 -87.046875 106.875 -82.546875 C 106.875 -78.117188 105.660156 -74.796875 103.234375 -72.578125 C 100.804688 -70.359375 96.644531 -69.25 90.75 -69.25 Z M 51.203125 -69.25 "/></g></g><g style="fill:#000000;fill-opacity:1;"><g transform="translate(1281.738127, 420.080191)"><path style="stroke:none" d="M 9.9375 0 L 50.9375 0 L 50.9375 -51.484375 L 102.046875 0 L 149.515625 0 L 88.390625 -61.40625 L 149.34375 -123.015625 L 101.78125 -123.015625 L 50.9375 -71.4375 L 50.9375 -123.015625 L 9.9375 -123.015625 Z M 9.9375 0 "/></g></g><g style="fill:#000000;fill-opacity:1;"><g transform="translate(15.967741, 420.080191)"><path style="stroke:none" d="M -1.734375 0 L 43.375 0 C 57.945312 0 69.410156 -4.28125 77.765625 -12.84375 C 86.117188 -21.40625 92.179688 -37.625 95.953125 -61.5 C 99.585938 -84.832031 98.914062 -100.914062 93.9375 -109.75 C 88.957031 -118.59375 79.179688 -123.015625 64.609375 -123.015625 L 19.953125 -123.015625 Z M 11.03125 -8.109375 L 29.796875 -114.90625 L 60.40625 -114.90625 C 71.582031 -114.90625 79.296875 -111.410156 83.546875 -104.421875 C 87.804688 -97.429688 88.144531 -83.125 84.5625 -61.5 C 80.914062 -39.445312 75.644531 -25.035156 68.75 -18.265625 C 61.851562 -11.492188 52.816406 -8.109375 41.640625 -8.109375 Z M 11.03125 -8.109375 "/></g></g><g style="fill:#000000;fill-opacity:1;"><g transform="translate(104.321281, 420.080191)"><path style="stroke:none" d="M -3.734375 0 L 8.015625 0 L 26.78125 -36.625 L 79.90625 -36.625 L 85.65625 0 L 97.5 0 L 76.90625 -123.28125 L 60.234375 -123.28125 Z M 30.34375 -44.5625 L 67.328125 -116.265625 L 67.609375 -116.265625 L 79.1875 -44.5625 Z M 30.34375 -44.5625 "/></g></g><g style="fill:#000000;fill-opacity:1;"><g transform="translate(202.057317, 420.080191)"><path style="stroke:none" d="M 39.8125 0.8125 C 55.664062 0.8125 67.554688 -2.3125 75.484375 -8.5625 C 83.410156 -14.820312 87.953125 -22.566406 89.109375 -31.796875 C 90.566406 -42.242188 88.578125 -49.5625 83.140625 -53.75 C 77.703125 -57.945312 68.210938 -62.019531 54.671875 -65.96875 C 43.671875 -69.125 35.484375 -72.507812 30.109375 -76.125 C 24.734375 -79.738281 22.59375 -85.554688 23.6875 -93.578125 C 24.539062 -100.015625 28.171875 -105.328125 34.578125 -109.515625 C 40.984375 -113.710938 49.503906 -115.8125 60.140625 -115.8125 C 70.828125 -115.8125 78.390625 -113.363281 82.828125 -108.46875 C 87.265625 -103.582031 88.234375 -93.363281 85.734375 -77.8125 L 97.125 -77.8125 C 99.863281 -94.457031 98.632812 -106.316406 93.4375 -113.390625 C 88.25 -120.472656 77.601562 -124.015625 61.5 -124.015625 C 45.945312 -124.015625 34.128906 -120.929688 26.046875 -114.765625 C 17.972656 -108.597656 13.421875 -101.109375 12.390625 -92.296875 C 11.117188 -82.640625 13.15625 -75.472656 18.5 -70.796875 C 23.84375 -66.117188 33.101562 -61.867188 46.28125 -58.046875 C 57.28125 -54.828125 65.570312 -51.484375 71.15625 -48.015625 C 76.75 -44.554688 78.90625 -38.695312 77.625 -30.4375 C 76.59375 -23.507812 72.929688 -17.921875 66.640625 -13.671875 C 60.359375 -9.421875 51.8125 -7.296875 41 -7.296875 C 30.125 -7.296875 22.546875 -9.785156 18.265625 -14.765625 C 13.984375 -19.742188 13.148438 -30.28125 15.765625 -46.375 L 4.375 -46.375 C 1.394531 -28.820312 2.5 -16.566406 7.6875 -9.609375 C 12.882812 -2.660156 23.59375 0.8125 39.8125 0.8125 Z M 39.8125 0.8125 "/></g></g></g></svg>